<?xml version="1.0" encoding="utf-8"?>

<!DOCTYPE svg PUBLIC "-//W3C//DTD SVG 1.1//EN" "http://www.w3.org/Graphics/SVG/1.1/DTD/svg11.dtd">
<!-- Uploaded to: SVG Repo, www.svgrepo.com, Generator: SVG Repo Mixer Tools -->
<svg height="800px" width="800px" version="1.1" id="_x32_" xmlns="http://www.w3.org/2000/svg" xmlns:xlink="http://www.w3.org/1999/xlink" 
	 viewBox="0 0 512 512"  xml:space="preserve">
<style type="text/css">
	.st0{fill:#000000;}
</style>
<g>
	<path class="st0" d="M8.712,409.016l494.592-0.63c4.805,0,8.679-3.89,8.679-8.679v-18.086c0-2.353-0.948-4.61-2.648-6.244
		c-1.7-1.643-3.988-2.516-6.325-2.435L8.385,390.072C3.711,390.244,0,394.077,0,398.751v1.578c0,2.312,0.932,4.519,2.55,6.146
		C4.184,408.109,6.391,409.016,8.712,409.016z"/>
	<path class="st0" d="M503.321,427.191L8.712,426.562c-2.304,0-4.511,0.916-6.146,2.542c-1.634,1.634-2.55,3.84-2.55,6.153v1.569
		c0,4.675,3.71,8.516,8.384,8.679l494.61,17.129c2.353,0.082,4.642-0.792,6.342-2.427c1.683-1.643,2.648-3.89,2.648-6.252v-18.078
		C512,431.082,508.11,427.191,503.321,427.191z"/>
	<path class="st0" d="M95.928,217.897c2.419,2.312,5.149,4.078,8.075,5.296c1.389-2.811,2.991-5.737,4.821-8.908
		c3.793-7.078,22.279-37.748,66.638-56.226c12.847-5.361,28.865-12.218,44.9-19.074c47.448-20.276,67.569-28.734,75.529-30.794
		c11.8-3.049,24.042-4.593,36.432-4.593c0.85,0,1.65,0.024,2.468,0.033l-0.49-0.532l-44.425-42.668
		c-7.093-6.8-14.22-8.336-26.527-9.856c0,0-19.467-3.906-43.494,2.289c-9.48,2.46-74.384,30.998-111.586,46.492
		c-37.2,15.512-50.129,41.598-50.129,41.598c-6.44,11.098-7.715,15.234-7.993,22.728c-0.278,7.51,1.16,11.375,6.571,16.573
		L95.928,217.897z"/>
	<path class="st0" d="M297.982,122.59c-10.33,2.664-80.924,33.719-121.393,50.571c-40.469,16.859-54.526,45.242-54.526,45.242
		c-7.012,12.079-8.401,16.566-8.696,24.722c-0.294,8.164,1.259,12.381,7.142,18.028l42.66,40.952
		c10.526,10.092,26.936,10.697,38.181,1.381c0,0,0.228-0.4,0.621-0.997c3.22,2.958,6.326,5.81,9.154,8.368
		c3.824,3.465,7.191,6.472,9.872,8.794c1.34,1.152,2.517,2.149,3.515,2.95c1.046,0.834,1.798,1.438,2.811,2.076
		c2.435,1.504,5.819,3.784,10.101,5.713c4.266,1.928,9.529,3.522,15.593,3.514c4.789,0.008,9.987-0.989,15.364-3.285l0.065-0.033
		l88.425-40.052c5.802-2.452,10.509-4.748,14.448-7.331c2.975-1.953,5.558-4.095,7.682-6.612c3.204-3.775,5.067-8.295,5.949-12.888
		c0.883-4.634,1.014-9.414,1.03-15.021c0-3.49-0.065-7.298-0.082-11.556l-0.163-34.495c10.771-2.142,27.541-0.752,27.541-0.752
		c5.704-0.302,10.69-3.972,12.683-9.317c1.994-5.352,0.622-11.384-3.514-15.348l-48.315-46.386
		c-7.715-7.413-15.462-9.08-28.849-10.738C345.283,120.09,324.101,115.84,297.982,122.59z M370.602,208.057l0.13,29.134
		c0,4.364,0.065,8.19,0.065,11.491c0.017,4.723-0.13,8.41-0.556,11.123c-0.343,2.051-0.784,3.522-1.372,4.74
		c-0.9,1.782-2.092,3.285-4.887,5.304c-2.762,1.962-7.045,4.208-13.19,6.782l-0.082,0.041l-88.31,39.987
		c-3.645,1.536-6.669,2.06-9.382,2.068c-3.432,0-6.44-0.858-9.365-2.174c-2.926-1.307-5.623-3.064-8.288-4.74
		c-0.081-0.048-0.751-0.539-1.602-1.242c-3.269-2.68-9.758-8.483-17.439-15.487c-1.618-1.496-3.4-3.147-5.132-4.732
		c9.463-10.96,25.841-26.323,49.704-36.269C293.683,240.42,346.412,217.897,370.602,208.057z"/>
</g>
</svg>